<svg id="Layer_1" data-name="Layer 1" xmlns="http://www.w3.org/2000/svg" viewBox="0 0 300 300"><defs><style>.cls-1{fill:#be1e2d;}.cls-2{fill:none;}.cls-2,.cls-3{stroke:#fff;stroke-miterlimit:10;stroke-width:2px;}.cls-3{fill:#fff;}</style></defs><polygon class="cls-1" points="224.94 280 149.81 149.88 300.06 149.88 224.94 280"/><polygon class="cls-1" points="75.06 20 -0.06 150.13 150.19 150.13 75.06 20"/><polygon class="cls-2" points="224.95 20.13 74.98 20.13 0 150 74.98 279.88 224.95 279.88 299.93 150 224.95 20.13"/><line class="cls-3" x1="74.98" y1="20.13" x2="224.95" y2="279.87"/><line class="cls-3" y1="150" x2="299.93" y2="150"/><line class="cls-3" x1="74.98" y1="279.87" x2="224.95" y2="20.13"/><line class="cls-2" x1="74.98" y1="20.13" x2="149.97" y2="63.42"/><line class="cls-2" x1="224.95" y1="20.13" x2="149.97" y2="63.42"/><line class="cls-2" x1="149.97" y1="150" x2="149.97" y2="63.42"/><line class="cls-2" y1="150" x2="74.98" y2="193.29"/><line class="cls-2" x1="149.97" y1="150" x2="74.98" y2="193.29"/><line class="cls-2" x1="74.98" y1="279.87" x2="74.98" y2="193.29"/><line class="cls-2" x1="150.03" y1="150" x2="225.02" y2="193.29"/><line class="cls-2" x1="300" y1="150" x2="225.02" y2="193.29"/><line class="cls-2" x1="225.02" y1="279.87" x2="225.02" y2="193.29"/><line class="cls-2" x1="0.02" y1="150.03" x2="75" y2="106.74"/><line class="cls-2" x1="75" y1="20.15" x2="75" y2="106.74"/><line class="cls-2" x1="149.98" y1="150.03" x2="75" y2="106.74"/><line class="cls-2" x1="75" y1="279.9" x2="149.98" y2="236.61"/><line class="cls-2" x1="149.98" y1="150.03" x2="149.98" y2="236.61"/><line class="cls-2" x1="224.97" y1="279.9" x2="149.98" y2="236.61"/><line class="cls-2" x1="150.02" y1="149.97" x2="225" y2="106.68"/><line class="cls-2" x1="225" y1="20.1" x2="225" y2="106.68"/><line class="cls-2" x1="299.98" y1="149.97" x2="225" y2="106.68"/></svg>