<svg id="Layer_1" data-name="Layer 1" xmlns="http://www.w3.org/2000/svg" viewBox="0 0 300 400"><defs><style>.cls-1{fill:#fff;}.cls-1,.cls-2,.cls-3{stroke:#231f20;stroke-miterlimit:10;stroke-width:2px;}.cls-2{fill:#37b24a;}.cls-3{fill:#14181f;}</style></defs><path class="cls-1" d="M149.29,311.65a142,142,0,0,1-27.13,5.45,81.9,81.9,0,0,1-11.08.33c-3.53-5.26-7.09-10.51-10.57-15.8a1.84,1.84,0,0,0-2.48-.91,17.48,17.48,0,0,1-7.1.29c-5.67-.74-10.26-3.53-15.17-5.66a72.76,72.76,0,0,1-7.18-4.11c-.44-.26-.78-.73-1.46-.61l-.05-.09.08.07c.26.52.49,1.05.79,1.56l8.83,15.05c.27.46.69.88.63,1.44-.67,0-1-.44-1.41-.7a33.64,33.64,0,0,1-15.68-20.63,16.65,16.65,0,0,0-.53-1.65c-.27-.67,0-1.83-1.76-1.07-.86.36-1.31-.55-1.63-1.16-1.21-2.31-2-4.74-3-7.13-2.3-5.64-3.24-11.57-5.1-17.3a57.46,57.46,0,0,0-4.7-11c2.27.82,3.77,2.16,5.61,3.21,4.79-16.56,12.24-31.75,29.47-42.67-1.31,8,1.82,14.83,6.08,21.4.59.91,1.07,1.15,2.32.66a87,87,0,0,1,35.71-6c2.11.09,4.2.41,6.3.57a1.56,1.56,0,0,1,1.51,1.31c2.69,8,5.91,15.88,8.84,23.83a28.12,28.12,0,0,0,9.12,12.21c7.77,6.25,16.64,10.82,27.51,12.21a63.08,63.08,0,0,0,22-1.21,11.81,11.81,0,0,1,3.41-.68l.25.19c-6.44,12.93-16.66,23.19-31.07,30.49-1.22-.92-2.5-1.81-3.67-2.78-4.08-3.39-7.81-3.69-12.46-.89a31.83,31.83,0,0,0-8.42,7.81c-.45.58-.24.93.24,1.36C147.39,309.88,148.33,310.77,149.29,311.65Z"/><path class="cls-1" d="M77.4,308.66c.06-.56-.36-1-.63-1.44l-8.83-15.05c-.3-.51-.53-1-.79-1.56l0,0c.68-.12,1,.35,1.46.61a72.76,72.76,0,0,0,7.18,4.11c4.91,2.13,9.5,4.92,15.17,5.66a17.48,17.48,0,0,0,7.1-.29,1.84,1.84,0,0,1,2.48.91c3.48,5.29,7,10.54,10.57,15.8l9.17,14.17c1,1.54,2.06,3,3,4.61a2.72,2.72,0,0,0,2.16,1.3A61.07,61.07,0,0,1,139,341.17c7.42,3.11,8.93,6.81,6.77,13.13-1.92,5.65-5.64,10.45-10.16,14.89A52.67,52.67,0,0,1,117.33,381a44.57,44.57,0,0,1-16.57,3.12C95.12,384,89.54,383.55,84,383c-5.12-.53-10.24-1-15.41-1.28-4.05-.19-8.05,0-12,.18-6.16.34-12.29,1.16-18.42,1.84-7.05.79-12.69-.84-15.68-7-1.87-3.84-4.92-5.89-9.42-7A46.34,46.34,0,0,1,4.19,367c-.78-.37-1.46-.82-2.2-1.22-2.69-1.44-2.64-3.12.05-4.56a87.83,87.83,0,0,1,17.27-6.56c6.59-1.87,13.44-2.71,20.24-3.72,15.19-2.27,30.46-4.24,45.35-7.72a36.53,36.53,0,0,0,7.47-2.46c1.4-.68,1.42-1.43,1-2.46a77.08,77.08,0,0,0-4.73-9.83c-2.69-5-5.48-10-8.26-15-.83-1.49-1.78-2.94-2.67-4.4a.43.43,0,0,0-.35-.47Z"/><path class="cls-1" d="M265.68,274c3.17.24,5.49,1.91,7.91,3.36,1.52.9,2.9,2,4.34,3s3.49,1,5.32,1.12c4.13.3,8.27.33,12.37,1,3.16.53,3.34,2.5,3.69,4.4a54.64,54.64,0,0,1-.27,18.7,59,59,0,0,1-7.74,21.2c-6.47,10.7-16.42,18.52-29,24.15A124.32,124.32,0,0,1,230,360c-4.8.74-9.64,1.21-14.51,1.53a150,150,0,0,1-16.69.17c-6.07-.28-12.14-.95-17.8-3.06a1.85,1.85,0,0,1-.37-.25c.59-1.94,2.14-2.95,4.43-3.54a105.91,105.91,0,0,0,16.63-5.28,14.89,14.89,0,0,0,5.21-3.17A122.61,122.61,0,0,0,221.37,327c1.3-2.18,2.73-4.43,2.77-6.87a136.58,136.58,0,0,1,1.47-16.63,108.52,108.52,0,0,1,1.95-11.42c.63-2.53,2.4-4.05,5.5-4.41,1.8-.21,3.63-.29,5.43-.53,4.76-.62,9.2-1.8,12.54-5a40.5,40.5,0,0,1,5.72-4.52C259.41,275.91,262.16,274.3,265.68,274Z"/><path class="cls-1" d="M85.73,69a66.84,66.84,0,0,0,7.48,1.15c4.29.42,8.12-.94,12-2.2,1.26,0,1.07-.76,1.06-1.41a20.7,20.7,0,0,1,1.1-7.91c.87-2.22,2.45-2.67,4.89-1.51A15.51,15.51,0,0,1,116,59.81a30,30,0,0,1,6,7.62c2.48,4.51,6.45,7.67,12,9.42,2.77.87,5.49,1.87,8.28,2.7a188.53,188.53,0,0,0,21.22,5A1.91,1.91,0,0,1,165,85.88c.52,1.75.8,3.54-.13,5.17-1.7,3-1.45,5.9-.52,8.93.63,2,.13,4.09-.16,6.12-.35,2.48-.84,5-1.24,7.43,0,.21.13.45.21.67a53.92,53.92,0,0,1-13.48,7.5c-2.93,1-6,1.74-9.1.47a10.89,10.89,0,0,0-7.94-.17c-2.89,1-5.72,2.15-8.57,3.25A66.3,66.3,0,0,1,112.2,129c-6.86,1.27-12.43-.39-15.27-5.28-1.49-2.56-3.35-3.51-6.47-3.32l-.17,0c-6.13-.35-11.83.51-16.66,4-2.16,1.55-4.38,3-6.57,4.57,1-5.57,4.44-9.92,9.62-13.34,1.2-.79,1.38-1.41,1-2.58-2-6.82-2.61-13.69-.64-20.61.27-.95.71-1.88,1.16-3-2.47,1.26-4.14,3.24-7.19,3.6a5,5,0,0,1,1.31-2.25,82.38,82.38,0,0,0,5.16-6.89c.64-1.06,1.29-2.11,1-3.39-.18-.8.62-1.19,1.31-1.51,1.45-.66,3-1.24,4.41-1.89,3.34-1.5,3.76-2.51,2.61-5.57-.32-.83-1.2-1.49-1.09-2.44Z"/><path class="cls-2" d="M163.47,84.52a188.53,188.53,0,0,1-21.22-5c-2.79-.83-5.51-1.83-8.28-2.7-5.58-1.75-9.55-4.91-12-9.42a30,30,0,0,0-6-7.62,15.51,15.51,0,0,0-3.74-2.71c-2.44-1.16-4-.71-4.89,1.51a20.7,20.7,0,0,0-1.1,7.91c0,.65.2,1.41-1.06,1.41l-7.82-7.09c-1.39-2.5-2.85-5-4.14-7.52-2.84-5.6-4.45-11.45-3.72-17.52.92-7.68,4.71-14.13,13.31-17.86a29,29,0,0,1,14.48-1.87,45.17,45.17,0,0,1,20.49,7c3.16,2,5.07,5,7.87,7.29,4.88,4,5.92,9.43,8.38,14.33,1,2.07,2.12,4.12,3,6.22,1.41,3.33,4.88,4.91,8,6.81a105.06,105.06,0,0,1,15.57,10.89c.31.28.61.57.92.84,3.61,3.1,3.41,6.52,1.21,10.1a42.67,42.67,0,0,1-8.78,4.4C170.47,84.21,167,84.47,163.47,84.52Z"/><path class="cls-1" d="M67.06,128.88c2.19-1.53,4.41-3,6.57-4.57,4.83-3.46,10.53-4.32,16.66-4l.17,0c3.12-.19,5,.76,6.47,3.32,2.84,4.89,8.41,6.55,15.27,5.28A66.3,66.3,0,0,0,124,125.25c2.85-1.1,5.68-2.24,8.57-3.25a10.89,10.89,0,0,1,7.94.17c3.09,1.27,6.17.55,9.1-.47a53.92,53.92,0,0,0,13.48-7.5,19.67,19.67,0,0,1,5.75,3.51,1.75,1.75,0,0,1,.31,2.71,13.36,13.36,0,0,1-6.92,4.86c-.78.22-.79.44-.64,1,1.14,4.12,6.43,7.19,11.33,6.64,5.81-.66,11.6-1.44,17.47-1.72,3.87-.19,7.38.51,10.17,2.93,1.43,1.24,1.37,2.16-.3,3.18s-3.32,2-5.05,2.85a53.72,53.72,0,0,0-7.17,4c-3,2.17-6.77,2.47-10.41,3.1-7.86,1.38-15.73,2.72-23.6,4.08a2.61,2.61,0,0,0-2,0q-10.53,3.07-21.07,6.11a17.93,17.93,0,0,0-3.88.4c-4.2.54-7.87,0-10.89-2.82-2.44-2.25-5.32-4.18-7.7-6.47-2.23-2.14-4.57-4.18-6.89-6.24-4-3.53-9.13-5.63-14.22-7.77a29.62,29.62,0,0,0-10-2.5c-1.93-.1-3.91.26-5.89.19a11,11,0,0,1-2.48-.23C66.78,131.34,66.46,130.94,67.06,128.88Z"/><path class="cls-2" d="M205,195.76c-2-.16-4.09-.37-6.14-.47-2.57-.12-3.26.67-2.36,2.68,3.16,7.13,6.32,14.27,9,21.54a13.26,13.26,0,0,1,1.18,4.39c-3.23-1.1-6.32-2.19-9.43-3.21A83.56,83.56,0,0,0,187,217.94a11.12,11.12,0,0,0-5.7.37,32.79,32.79,0,0,0-7.23,2.54c-3,.81-2.79.65-4.89-1.34-4.32-4.07-6.27-9.1-8.76-13.93a77.61,77.61,0,0,0-4.62-8.42c-.38-.57-.27-.84.29-1.16s.9-.58,1.35-.87a20.24,20.24,0,0,1,11.84-2.55c4,.46,8.09.33,12.14.52,1.29.06,1.66-.25,1.6-1.34a53.62,53.62,0,0,1,.45-9.55c.46-3.74,2.42-7,4.61-10.18,1.22-1.5,2.32-3.06,3.66-4.47,2.64-2.79,5.8-4.9,10.38-4.71a15.6,15.6,0,0,1,10.37,4.53,16.08,16.08,0,0,1,4.23,5.87,2.17,2.17,0,0,0,1.17,1,22.82,22.82,0,0,1,3.71,1.73c.86.5,2,.23,3,.28a13.82,13.82,0,0,1,10.16,4.83,14.21,14.21,0,0,1,3.36,7.29,7.84,7.84,0,0,1,0,4,17.05,17.05,0,0,1-5-2.48c-1.84-1.2-2.42-1.06-3,.79-.42,1.28-.71,2.59-1,3.9a6.8,6.8,0,0,1-1.11,2.38,3.21,3.21,0,0,1-3.31,1.28c-3.94-.56-7.88-1.06-11.82-1.59Z"/><path class="cls-1" d="M265.68,274c-3.52.3-6.27,1.91-8.93,3.67a40.5,40.5,0,0,0-5.72,4.52c-3.34,3.18-7.78,4.36-12.54,5-1.8.24-3.63.32-5.43.53-3.1.36-4.87,1.88-5.5,4.41a108.52,108.52,0,0,0-1.95,11.42,136.58,136.58,0,0,0-1.47,16.63c0,2.44-1.47,4.69-2.77,6.87a122.61,122.61,0,0,1-14.43,19.38,14.89,14.89,0,0,1-5.21,3.17,105.91,105.91,0,0,1-16.63,5.28c-2.29.59-3.84,1.6-4.43,3.54a7.2,7.2,0,0,1-2.71-1.31,1.37,1.37,0,0,1-.35-2.27,25.34,25.34,0,0,1,5.33-4.23c2.44-1.61,4.8-3.31,7.29-4.86.82-.51.51-.74,0-1-4.48-2.28-8.21-5.35-12-8.32-5.67-4.47-11.14-9.13-16.59-13.8-4.2-3.58-8.24-7.29-12.35-11-1-.88-1.9-1.77-2.88-2.63-.48-.43-.69-.78-.24-1.36a31.83,31.83,0,0,1,8.42-7.81c4.65-2.8,8.38-2.5,12.46.89,1.17,1,2.45,1.86,3.67,2.78a132.93,132.93,0,0,0,13.91,8.86,235.79,235.79,0,0,0,25.68,13.16c.55.23,1.12.44,1.69.64,2.24.79,2.28.8,3.27-1.1a44,44,0,0,0,3.55-10.7c1.09-4.81,2-9.64,3-14.47.44-2.25.66-4.54,1.1-6.8a11.29,11.29,0,0,1,4.46-6.94c1.25-.94,2.94-1.15,4.5-1.52,4.3-1,8.63-1.95,12.92-3a9.48,9.48,0,0,0,3.9-2.1,24.28,24.28,0,0,1,15.21-5.8A2.59,2.59,0,0,1,265.68,274Z"/><path class="cls-1" d="M188.11,171.59c-2.19,2.9-4.15,5.86-4.61,9.26a44.3,44.3,0,0,0-.45,8.68c.06,1-.31,1.27-1.6,1.22-4-.18-8.12-.06-12.14-.48a22,22,0,0,0-11.84,2.32,2.16,2.16,0,0,0-1.56-1.52,82.62,82.62,0,0,1-10.77-4.55c-2.87-1.45-4.63-4.47-3.78-6.94a5.59,5.59,0,0,1,1.15-1.39,10.63,10.63,0,0,1,2.61-.75c8.7.3,16.1,3.08,23,6.85a1.15,1.15,0,0,0,1.45,0,4.33,4.33,0,0,1,2-.58h.06a5.71,5.71,0,0,1,1.51-.16c2.06.37,2.21-.65,2.21-1.71s-.14-2.34-.21-3.5v-2.63c.27-1.63-.06-3.28.49-4.92a7.31,7.31,0,0,1,1.33-2.36c1.74-.64,3.36.06,5,.24C183.94,169.74,186.29,170.35,188.11,171.59Z"/><path class="cls-3" d="M174,83.92a42.67,42.67,0,0,0,8.78-4.4,66.88,66.88,0,0,1,9,7c3.47,3.19,6.59,6.58,8.24,10.78,1.29,3.26,1,6.55.51,9.83a59.6,59.6,0,0,1-3.19,12.2c-.77,0-.8-.49-1-.84a38.73,38.73,0,0,0-4.28-6.52c-1.12-1.37-2.23-1.47-3.42-.17a43.75,43.75,0,0,1-5.06,5.33,4.16,4.16,0,0,1-2.79,1.09,98,98,0,0,0,3.15-11.35,29,29,0,0,0,.5-8.1A8.37,8.37,0,0,0,183,94.83a66.56,66.56,0,0,0-8.19-10C174.47,84.54,174.22,84.22,174,83.92Z"/><path class="cls-1" d="M171.63,185.34h-.06a54.52,54.52,0,0,0-14.84-9.95c-3.66-1.64-7.35-3.25-11-4.83a6.08,6.08,0,0,1-2.29-1.66,92.42,92.42,0,0,0-8-8.34,21.22,21.22,0,0,0-4.37-3.16q10.53-3,21.07-6.11a2.61,2.61,0,0,1,2,0c-1.26.14-1.47.6-1,1.61,1.27,2.74,2.41,5.53,3.54,8.32a2.35,2.35,0,0,0,1.51,1.4,15.78,15.78,0,0,1,9.13,8.09,56.29,56.29,0,0,1,4.41,13.58A5.47,5.47,0,0,1,171.63,185.34Z"/><path class="cls-1" d="M205,195.76l7.77.87c2.87,4.44,5.64,8.91,8.26,13.46a19.2,19.2,0,0,1,2.25,12.69,50.2,50.2,0,0,1-2.17,9.57c-1.18,3.45-4,4.77-8.54,4.06,1.72-2.59,1.4-5.47,1.61-8.24a95.65,95.65,0,0,0,0-10.71c-.15-4.05-1.82-7.79-3.57-11.52C209,202.44,206.75,199.21,205,195.76Z"/><path class="cls-1" d="M174.1,220.85a32.79,32.79,0,0,1,7.23-2.54c1.49,1.36,2.94,2.77,4.49,4.09,2.83,2.43,4.53,5.25,4.73,8.68a31.51,31.51,0,0,1-.72,9.91,4.1,4.1,0,0,1-2.53,2.52,57.84,57.84,0,0,1-8.6,3.06c.52-2.11,1-4.1,1.5-6.08A31.81,31.81,0,0,0,181.38,230c-.26-3.21-2.26-5.71-5.24-7.7C175.44,221.82,174.78,221.33,174.1,220.85Z"/><path class="cls-1" d="M145.12,178.46a9.26,9.26,0,0,0-2.61.83c-2.5-.48-4.82-1.39-7.39-1.74-5.42-.73-9.84.41-13.17,4.16-.47.54-.79,1.36-1.8,1.29-.53,0-1.43-2.43-1.1-2.93a11.51,11.51,0,0,1,1.69-2.2,17.05,17.05,0,0,1,21.43-1.28C143.1,177.26,144.14,177.84,145.12,178.46Z"/><path class="cls-1" d="M97.37,60.84l7.82,7.09c-3.86,1.26-7.69,2.62-12,2.2.72-1.88,1.47-3.75,2.16-5.64A18.29,18.29,0,0,1,97.37,60.84Z"/><path class="cls-1" d="M182,168.79c-1.68-.2-3.3-1-5-.27-1-2.76-1.72-5.62-3.85-8-.36-.41-.73-.81-1.28-1.42a20,20,0,0,1,7.08,1.38c1.2.51,1.35,1.9,1.81,3C181.47,165.16,182.26,166.89,182,168.79Z"/><path class="cls-1" d="M175.13,176.54v1.73A1.43,1.43,0,0,1,175.13,176.54Z"/><path class="cls-1" d="M77.4,308.63a.43.43,0,0,1,.35.47C77.59,309,77.21,308.94,77.4,308.63Z"/><path class="cls-1" d="M175.13,179.1v.33a1,1,0,0,1-.08-.23S175.11,179.13,175.13,179.1Z"/><path class="cls-1" d="M201.54,272.84l.21-.14c0,.11,0,.22,0,.33Z"/><path class="cls-1" d="M85.75,69l-.1.08.08-.06Z"/><path class="cls-1" d="M67.15,290.61l-.08-.07.05.09Z"/></svg>